# xmcd CD database file
#
# Track frame offsets:
#	150
#	26357
#	50522
#	75357
#	115917
#	141290
#	166235
#
# Disc length: 2632 seconds
#
# Revision: 0
# Processed by: cddbd v1.5.2PL0 Copyright (c) Steve Scherf et al.
# Submitted via: CDex 1.51
#
DISCID=4e0a4607
DTITLE=Bob James - Sign Of The Times
DYEAR=1993
DGENRE=Jazz
TTITLE0=Hypnotique
TTITLE1=The Steamin' Feelin'
TTITLE2=Enchanted Forest
TTITLE3=Unicorn
TTITLE4=Sign Of The Times
TTITLE5=Love Power
TTITLE6=Body And Soul
EXTD=YEAR: 1993
EXTT0=
EXTT1=
EXTT2=
EXTT3=
EXTT4=
EXTT5=
EXTT6=
PLAYORDER=
